<svg xmlns="http://www.w3.org/2000/svg" width="188.268" height="91.437" viewBox="0 0 188.268 91.437">
  <g id="golden_logo" transform="translate(-499.012 -181.563)">
    <path id="Path_33" data-name="Path 33" d="M60.24-35.1a.446.446,0,0,1,.12.33,1.04,1.04,0,0,1-.3.57,26.227,26.227,0,0,0-3.54,4.95,35.9,35.9,0,0,0-2.67,6.09,44.254,44.254,0,0,0-1.71,6.96,46.289,46.289,0,0,0-.6,7.5,11.125,11.125,0,0,0,.72,4.47,2.507,2.507,0,0,0,2.46,1.59q2.34,0,4.56-3.36a.3.3,0,0,1,.36,0q.18.12.06.36a15.952,15.952,0,0,1-1.41,2.01,16.308,16.308,0,0,1-1.71,1.8A10.958,10.958,0,0,1,54.81-.51,3.2,3.2,0,0,1,53.22,0a3.288,3.288,0,0,1-3.03-2.01,11.039,11.039,0,0,1-1.05-5.13,46.061,46.061,0,0,1,1.08-9.78q-2.82,0-5.55.06t-5.37.18q-1.98,2.1-3.81,3.96T31.92-9.3a41.794,41.794,0,0,1-9.87,6.84A25.155,25.155,0,0,1,10.92,0,7.836,7.836,0,0,1,5.97-1.47,7.349,7.349,0,0,1,3.39-5.16a9.557,9.557,0,0,1-.12-4.89,11.4,11.4,0,0,1,2.55-5.01.365.365,0,0,1,.42.03q.24.15.18.57a6.447,6.447,0,0,0-1.71,3.6,6.74,6.74,0,0,0,.63,3.9A7.382,7.382,0,0,0,8.4-3.84a11.112,11.112,0,0,0,5.64,1.26,21.728,21.728,0,0,0,9.21-2.16,33.289,33.289,0,0,0,8.79-6.06q1.32-1.2,2.73-2.67t2.97-3.15q-4.14.3-7.44.72-.3-.06-.12-.3a2.468,2.468,0,0,1,.57-.51,4.762,4.762,0,0,1,.9-.48,3.861,3.861,0,0,1,.99-.27q.72-.06,2.37-.09t3.75-.09q3.42-3.6,7.65-7.74a119.744,119.744,0,0,1,9.81-8.52,73.334,73.334,0,0,0-8.31-2.19,41.505,41.505,0,0,0-8.25-.87,10.9,10.9,0,0,0-7.47,2.61q-2.97,2.61-3.69,7.95-.12.3-.33.24a.412.412,0,0,1-.27-.36q.72-5.88,4.38-9a14.1,14.1,0,0,1,9.48-3.12,38.323,38.323,0,0,1,4.98.33q2.52.33,4.92.84t4.59,1.14Q58.44-35.7,60.24-35.1ZM50.4-17.7a50.35,50.35,0,0,1,2.82-8.55,38.374,38.374,0,0,1,4.32-7.59q-5.28,4.26-9.48,8.37t-7.8,7.83q2.88-.06,5.7-.06ZM86.28-44.58a1.909,1.909,0,0,1,2.01,1.44,3.932,3.932,0,0,1-.39,3.06q-.12.12-.3,0a.578.578,0,0,1-.24-.3,1.181,1.181,0,0,0-.51-1.2,3.216,3.216,0,0,0-1.95-.48,7.837,7.837,0,0,0-5.1,2.16,28.117,28.117,0,0,0-4.86,5.61,57.2,57.2,0,0,0-4.35,7.71,86.261,86.261,0,0,0-3.48,8.49,73.112,73.112,0,0,0-2.31,7.98,29.187,29.187,0,0,0-.84,6.09q0,1.8,1.02,1.8a2.144,2.144,0,0,0,1.41-.6,11.876,11.876,0,0,0,1.59-1.8.236.236,0,0,1,.33.03.384.384,0,0,1,.09.39,12.786,12.786,0,0,1-2.64,3.03A4.239,4.239,0,0,1,63.3,0a1.509,1.509,0,0,1-1.26-.63,2.756,2.756,0,0,1-.48-1.71,20.752,20.752,0,0,1,.6-4.35q.6-2.67,1.68-5.97t2.61-6.93q1.53-3.63,3.33-7.17t3.81-6.78a44.671,44.671,0,0,1,4.14-5.7,21.715,21.715,0,0,1,4.29-3.9A7.662,7.662,0,0,1,86.28-44.58ZM70.92-11.16q-.18.12-.33-.09a.319.319,0,0,1-.03-.39,21.688,21.688,0,0,1,2.28-1.92,18.915,18.915,0,0,1,2.88-1.8q.48,0,.48.54-.78,1.38-1.53,3T73.35-8.61a30.8,30.8,0,0,0-.93,3.06,10.622,10.622,0,0,0-.36,2.43q0,1.26.84,1.26a1.922,1.922,0,0,0,1.29-.57,18.776,18.776,0,0,0,1.47-1.53q.12-.12.3.06a.333.333,0,0,1,.06.42,20.243,20.243,0,0,1-2.31,2.4A3.623,3.623,0,0,1,71.4,0q-1.56,0-1.56-1.98a11.737,11.737,0,0,1,.39-2.73,29.43,29.43,0,0,1,.99-3.21,31.2,31.2,0,0,1,1.35-3.12,24.166,24.166,0,0,1,1.47-2.58q-.66.48-1.65,1.23A14.965,14.965,0,0,0,70.92-11.16Zm5.4-6.78q-.18.18-.33.03a.835.835,0,0,1-.21-.42,2.929,2.929,0,0,1-.06-.63.972.972,0,0,1,.18-.6,28.5,28.5,0,0,1,4.38-4.62.362.362,0,0,1,.36.09q.18.15.06.27a17.087,17.087,0,0,0-2.4,2.73A29.091,29.091,0,0,0,76.32-17.94Zm8.76,2.58a4.617,4.617,0,0,1,2.01.39q.81.39.81.87a4.969,4.969,0,0,1-.27,1.5,7.791,7.791,0,0,1-.57,1.38.278.278,0,0,1-.33.03q-.21-.09-.15-.27a3.376,3.376,0,0,0,.24-.96,2.488,2.488,0,0,0-.06-.96,1.527,1.527,0,0,0-1.68-1.2,2.294,2.294,0,0,0-1.65.6,2.374,2.374,0,0,0-.63,1.8,3.565,3.565,0,0,0,.51,1.83q.51.87,1.14,1.74a14.438,14.438,0,0,1,1.14,1.86,4.711,4.711,0,0,1,.51,2.19,4.355,4.355,0,0,1-1.35,3.24A5.578,5.578,0,0,1,80.7,0a6.305,6.305,0,0,1-3.06-.66q-1.2-.66-1.2-1.38a3.638,3.638,0,0,1,.66-1.62A6.466,6.466,0,0,1,78.6-5.4a.225.225,0,0,1,.33.06.276.276,0,0,1,.03.36,3.128,3.128,0,0,0-.72,1.11,1.854,1.854,0,0,0-.12,1.11,2.223,2.223,0,0,0,.93,1.53,3.071,3.071,0,0,0,1.77.51,3.354,3.354,0,0,0,2.43-.84,2.87,2.87,0,0,0,.87-2.16,4.379,4.379,0,0,0-.54-2.13q-.54-.99-1.17-1.92T81.27-9.63a4.114,4.114,0,0,1-.51-2.01,3.456,3.456,0,0,1,1.17-2.64A4.462,4.462,0,0,1,85.08-15.36ZM104.22-3.78q.12-.12.3,0a.3.3,0,0,1,.12.36,10.637,10.637,0,0,1-2.49,2.58,3.942,3.942,0,0,1-2.07.84.99.99,0,0,1-.87-.54,3.466,3.466,0,0,1-.42-1.47,9.466,9.466,0,0,1,.06-2.1,16.493,16.493,0,0,1,.51-2.43,26.985,26.985,0,0,1-3.42,4.35A7.23,7.23,0,0,1,92.46,0a2.2,2.2,0,0,1-1.83-1.05,5.68,5.68,0,0,1-.75-3.27,10.168,10.168,0,0,1,.81-3.93,12.936,12.936,0,0,1,2.19-3.54,11.108,11.108,0,0,1,3.18-2.55,7.923,7.923,0,0,1,3.78-.96,6.365,6.365,0,0,1,1.86.24,4.864,4.864,0,0,1,1.44.72,4.043,4.043,0,0,1,.99-.57,2.988,2.988,0,0,1,1.17-.27q.3,0,.18.3a18.686,18.686,0,0,0-2.37,3.72,23.956,23.956,0,0,0-1.53,3.96,20.386,20.386,0,0,0-.69,3.39,3.307,3.307,0,0,0,.21,2.01q.3.42,1.08.03A7.341,7.341,0,0,0,104.22-3.78ZM93.78-2.04a2.967,2.967,0,0,0,1.71-.93A16.947,16.947,0,0,0,97.68-5.4a34.373,34.373,0,0,0,2.25-3.39,36.086,36.086,0,0,0,1.95-3.81,2.179,2.179,0,0,0-1.11-1.26,4.093,4.093,0,0,0-2.01-.48,4.823,4.823,0,0,0-2.49.69,6.944,6.944,0,0,0-2.07,1.92,10.144,10.144,0,0,0-1.44,2.91,12.111,12.111,0,0,0-.54,3.72,4.742,4.742,0,0,0,.45,2.19Q93.12-2.04,93.78-2.04Zm93.84-36.6a3.19,3.19,0,0,1,2.67,1.29q.99,1.29.99,4.47-.06.36-.33.39t-.39-.33a3.389,3.389,0,0,0-.78-1.86,3.633,3.633,0,0,0-1.62-1.11,4.661,4.661,0,0,0-2.13-.18,4.958,4.958,0,0,0-2.31.99,21.236,21.236,0,0,0-5.4,5.94A50.379,50.379,0,0,0,174-20.55a59.249,59.249,0,0,0-2.94,9.75,57.864,57.864,0,0,0-1.26,9.72,2.036,2.036,0,0,1-.12.87.443.443,0,0,1-.42.21.443.443,0,0,1-.39-.27,3.723,3.723,0,0,1-.27-.63,100.523,100.523,0,0,0-6.48-18.09,40.7,40.7,0,0,0-8.64-12.33,61.776,61.776,0,0,1-3.78,13.26,39.882,39.882,0,0,1-5.76,9.84,24.3,24.3,0,0,1-7.2,6.12A16.756,16.756,0,0,1,128.7,0a11.873,11.873,0,0,1-6.9-1.83,9.261,9.261,0,0,1-3.6-4.5,9.5,9.5,0,0,1-.18-5.7,10.833,10.833,0,0,1,3.36-5.37.407.407,0,0,1,.45.15.507.507,0,0,1,.03.51,7.948,7.948,0,0,0-2.22,4.17,7.7,7.7,0,0,0,.48,4.65,8.529,8.529,0,0,0,3.42,3.78,12.339,12.339,0,0,0,6.66,1.56,15.623,15.623,0,0,0,7.74-2.01,20.725,20.725,0,0,0,6.45-5.82,36.029,36.029,0,0,0,4.86-9.36,63.936,63.936,0,0,0,3.03-12.63,19.466,19.466,0,0,0-5.22-3.18,15.048,15.048,0,0,0-5.64-1.08,8.137,8.137,0,0,0-4.77,1.32,8.358,8.358,0,0,0-2.73,2.94.449.449,0,0,1-.39.06.412.412,0,0,1-.27-.36,9.928,9.928,0,0,1,1.47-2.22,10.685,10.685,0,0,1,2.13-1.89,11.029,11.029,0,0,1,2.76-1.32,10.751,10.751,0,0,1,3.36-.51,13.745,13.745,0,0,1,4.95.93,18.909,18.909,0,0,1,4.71,2.67v-.12a3.067,3.067,0,0,1,.3-.84,7.122,7.122,0,0,1,.51-.87,1.915,1.915,0,0,1,.51-.54q.24-.15.3.15-.06.84-.15,1.65t-.21,1.59a37.449,37.449,0,0,1,4.92,5.34,52.937,52.937,0,0,1,4.32,6.66,67.848,67.848,0,0,1,3.57,7.59q1.59,3.99,2.79,8.07a57.724,57.724,0,0,1,1.38-7.41,63.432,63.432,0,0,1,2.34-7.38,59.639,59.639,0,0,1,3.09-6.75,38.408,38.408,0,0,1,3.6-5.58,18.9,18.9,0,0,1,3.84-3.78A6.683,6.683,0,0,1,187.62-38.64ZM176.58,0q-.72,0-.72-1.32a1.59,1.59,0,0,1,.24-.78,4.038,4.038,0,0,1,.66-.84,4.152,4.152,0,0,1,.9-.69,2.049,2.049,0,0,1,1.02-.27q.6,0,.6.9a2.111,2.111,0,0,1-.27.99,5.124,5.124,0,0,1-.66.96,3.848,3.848,0,0,1-.87.75A1.717,1.717,0,0,1,176.58,0Z" transform="translate(496 273)" fill="#d4c36d"/>
    <g id="Group_3" data-name="Group 3" transform="translate(544.607 170.705) rotate(-22)">
      <path id="Path_3" data-name="Path 3" d="M24.3,40,20,52.915,44.107,78.887,68.214,52.915,63.91,40h-15.5l-4.3,6.457L39.8,40Z" transform="translate(0 0)" fill="none" stroke="#d4c36d" stroke-width="1"/>
      <path id="Path_4" data-name="Path 4" d="M188.012,85.144v32.507" transform="translate(-143.905 -38.803)" fill="none" stroke="#d4c36d" stroke-width="1"/>
      <path id="Path_5" data-name="Path 5" d="M207.8,40,188,78.887" transform="translate(-143.893 0)" fill="none" stroke="#d4c36d" stroke-width="1"/>
      <path id="Path_6" data-name="Path 6" d="M50,40,69.8,78.887" transform="translate(-25.695 0)" fill="none" stroke="#d4c36d" stroke-width="1"/>
      <path id="Path_7" data-name="Path 7" d="M20,130" transform="translate(0 -77.085)" fill="none" stroke="#d4c36d" stroke-width="1"/>
      <path id="Path_8" data-name="Path 8" d="M27.605,85,20,91.457" transform="translate(0 -38.543)" fill="none" stroke="#d4c36d" stroke-width="1"/>
      <path id="Path_9" data-name="Path 9" d="M113.609,91.457,106,85H73" transform="translate(-45.395 -38.543)" fill="none" stroke="#d4c36d" stroke-width="1"/>
    </g>
  </g>
</svg>
